# xmcd CD database file
#
# Track frame offsets:
#	150
#	17986
#	33098
#	52531
#	72972
#
# Disc length: 1237 seconds
#
# Revision: 2
# Processed by: cddbd v1.5.2PL0 Copyright (c) Steve Scherf et al.
# Submitted via: CDex 1.51
#
DISCID=3204d305
DTITLE=Cold Rat - Terror Of The Imaginary Child
DYEAR=2009
DGENRE=Jazz
TTITLE0=Party Island 5ive
TTITLE1=Little Reaper
TTITLE2=(Don't) Write It On The Wall
TTITLE3=Moshi Moshi
TTITLE4=Watch The Spikes
EXTD=YEAR: 2009
EXTT0=
EXTT1=
EXTT2=
EXTT3=
EXTT4=
PLAYORDER=
